<svg width="19" height="27" viewBox="0 0 19 27" fill="none" xmlns="http://www.w3.org/2000/svg">
<path d="M9.75461 0.254829C8.70089 0.255118 7.69043 0.648822 6.94533 1.34939C6.20024 2.04997 5.78153 3.00007 5.78122 3.99082V5.68801H3.97618C3.454 5.6876 2.93686 5.78402 2.45435 5.97173C1.97185 6.15943 1.53345 6.43477 1.16422 6.78195C0.794998 7.12912 0.502206 7.54136 0.302595 7.99504C0.102985 8.44874 0.000475699 8.93499 0.000932214 9.42596V13.1606H5.78028V16.555H3.97525C2.92123 16.5549 1.91032 16.9484 1.16484 17.649C0.419366 18.3496 0.000368188 19.2999 0 20.291V26.7455H3.97711C4.49879 26.7453 5.01529 26.6485 5.49717 26.4604C5.97902 26.2725 6.41677 25.9971 6.78546 25.6501C7.15413 25.3031 7.44648 24.8912 7.64583 24.4378C7.84516 23.9844 7.94759 23.4988 7.94725 23.0083H7.95235V20.5425L7.94171 20.5438V4.83398L7.9505 4.83594V3.99147C7.95141 3.54119 8.14173 3.10953 8.47991 2.7907C8.81806 2.47188 9.27664 2.29178 9.75554 2.28971H16.6584V3.99147C16.657 4.44155 16.466 4.87277 16.1273 5.19081C15.7886 5.50885 15.3298 5.68786 14.8511 5.68866H8.7674V7.72573H14.8501C15.9039 7.72578 16.9144 7.33227 17.6596 6.63177C18.4047 5.93126 18.8234 4.98114 18.8235 3.99039V0.254395L9.75461 0.254829ZM5.78122 11.1234H2.16975V9.42617C2.17054 8.97536 2.36108 8.54317 2.69975 8.22405C3.0384 7.90494 3.49765 7.72483 3.97711 7.72312H5.78215L5.78122 11.1234ZM5.78122 23.0102C5.78042 23.4602 5.59005 23.8917 5.25177 24.21C4.91348 24.5285 4.45482 24.708 3.97618 24.7091H2.16882V20.2921C2.16926 19.8417 2.35989 19.41 2.6988 19.0917C3.03773 18.7734 3.49717 18.5947 3.97618 18.5949H5.78122V23.0102ZM8.7674 13.1604H13.3263V14.8593C13.3245 15.3093 13.1334 15.7404 12.7948 16.0584C12.4562 16.3764 11.9975 16.5555 11.5189 16.5565H8.7674V18.5949H11.5198C12.0417 18.5952 12.5585 18.4987 13.0407 18.311C13.5229 18.1234 13.9611 17.8482 14.3301 17.5012C14.6991 17.1543 14.9918 16.7423 15.1913 16.2889C15.3909 15.8355 15.4935 15.3496 15.4932 14.8589H15.4951V11.1229H8.7674V13.1604Z" fill="#6C63FF"/>
</svg>
